<svg version="1.1" id="svg379" inkscape:version="1.2.2 (732a01da63, 2022-12-09)" sodipodi:docname="logo_rezal.svg" xmlns:inkscape="http://www.inkscape.org/namespaces/inkscape" xmlns:sodipodi="http://sodipodi.sourceforge.net/DTD/sodipodi-0.dtd" xmlns:xlink="http://www.w3.org/1999/xlink" xmlns="http://www.w3.org/2000/svg" xmlns:svg="http://www.w3.org/2000/svg" viewBox="29.55 74.65 141.28 146.98">
  <sodipodi:namedview id="namedview381" pagecolor="#ffffff" bordercolor="#000000" borderopacity="0.25" inkscape:showpageshadow="2" inkscape:pageopacity="0.0" inkscape:pagecheckerboard="0" inkscape:deskcolor="#d1d1d1" inkscape:document-units="mm" showgrid="false" inkscape:zoom="0.52284039" inkscape:cx="668.46404" inkscape:cy="452.3369" inkscape:window-width="1920" inkscape:window-height="991" inkscape:window-x="-9" inkscape:window-y="-9" inkscape:window-maximized="1" inkscape:current-layer="layer1"/>
  <defs id="defs376">
    <radialGradient inkscape:collect="always" xlink:href="#linearGradient4116" id="radialGradient4118" cx="2760.261" cy="657.23102" fx="2760.261" fy="657.23102" r="239.85503" gradientTransform="matrix(1,0,0,0.78116504,0,143.82512)" gradientUnits="userSpaceOnUse"/>
    <linearGradient inkscape:collect="always" id="linearGradient4116">
      <stop style="stop-color:#ff6701;stop-opacity:1;" offset="0" id="stop4112"/>
      <stop style="stop-color:#000000;stop-opacity:1;" offset="1" id="stop4114"/>
    </linearGradient>
    <clipPath clipPathUnits="userSpaceOnUse" id="clipPath12355">
      <path id="path12357" style="fill:#ff0000;fill-opacity:1;fill-rule:nonzero;stroke:none;stroke-width:0.264583" d="m 2520.4058,469.86486 v 374.73269 h 479.7099 V 469.86486 Z m 381.4249,26.49088 c 0.6273,-0.0146 1.3888,0.28379 2.1524,1.02939 0.9268,0.90834 1.756,1.9136 2.6241,2.8789 0.2093,0.20976 0.422,0.41701 0.6371,0.62167 0.024,0.008 0.045,0.014 0.069,0.0222 0.2852,0.0957 0.5635,0.20614 0.8379,0.3266 0.019,-0.0265 0.038,-0.053 0.059,-0.0785 0.9472,-1.17393 2.6951,-1.44928 4.0757,-1.64486 0.2307,0.0103 0.463,0.008 0.694,0.0164 0.4199,-0.54988 0.9541,-1.00145 1.5777,-1.21285 0.4646,-0.15748 0.9676,-0.16346 1.4512,-0.24545 0.367,0.11136 0.7636,0.15134 1.1007,0.33382 1.7116,0.92634 2.2714,3.01107 2.7419,4.73874 0.2373,1.09234 0.4731,2.20935 0.6217,3.33312 0.2379,0.26419 0.4657,0.53753 0.6779,0.82579 1.3401,1.82531 1.9172,3.13108 1.429,5.42137 -0.5228,1.72349 -1.3591,3.54663 -3.4128,3.77343 -0.3628,0.0401 -0.725,-0.0872 -1.0872,-0.13076 -0.154,-0.065 -0.3035,-0.13308 -0.4501,-0.20412 0,0.005 0,0.0106 -0.01,0.0161 -0.1797,0.45979 -0.6242,0.76438 -0.9367,1.1467 -0.3222,0.0873 -0.6329,0.2281 -0.9676,0.26199 -1.0877,0.1111 -1.9788,-0.72657 -2.6834,-1.4242 -0.5778,-0.6223 -1.066,-1.31932 -1.647,-1.93889 -0.7406,-0.8458 -1.4973,-1.67669 -2.2106,-2.54558 -0.7228,-1.05701 -1.6153,-1.97829 -2.4294,-2.96262 -0.703,-0.94777 -1.5586,-1.75943 -2.3648,-2.61536 -0.5826,-0.67826 -0.3059,-0.3606 -0.8287,-0.95393 -1.2084,-1.37189 -1.0956,-2.66678 -0.3815,-3.25302 0,-0.007 0.01,-0.0146 0.01,-0.0217 -0.572,-0.65402 -1.1467,-1.30762 -1.7671,-1.91717 -1.8021,-1.7712 -1.0713,-3.56229 0.4149,-3.59669 z m 16.7208,15.94787 c 0.016,0.11707 0.059,0.23217 0.1392,0.34054 0.045,0.0614 -0.069,-0.20108 -0.1392,-0.34054 z m -4.4502,3.59463 c 0.087,0.30641 0.2627,0.36777 0,0 z m -173.6143,40.74271 v 0.003 c 0.2656,-0.005 0.5347,0.0536 0.7932,0.18706 0.1582,0.0819 0.2823,0.21455 0.4088,0.34364 0.094,-0.008 0.1812,-0.008 0.2614,0 0.1254,-0.10615 0.2688,-0.17981 0.413,-0.17002 0.7228,0.0489 0.7059,0.27856 0.8879,0.74208 0.011,0.15396 0.019,0.26688 0.021,0.36896 0.1545,0.0349 0.3006,0.097 0.4347,0.17986 0.013,-0.004 0.033,0.005 0.047,0.004 -0.011,0 -0.019,0.003 -0.027,0.005 0.011,0.003 0.011,0.007 0.016,0.0109 0.016,-0.009 0.024,-0.0161 0.013,-0.0156 0.2175,-0.0385 0.4982,0.0388 0.8853,0.32348 0.1397,0.10242 0,0.30191 -0.098,0.48937 0.1121,0.0323 0.21,0.0808 0.2883,0.15142 0.2067,0.0874 0.3609,0.23022 0.4565,0.4036 0.1534,0.003 0.3087,0.0335 0.4627,0.0584 0.123,-0.13062 0.2619,-0.2594 0.431,-0.26665 0.2736,-0.0116 0.5088,0.20405 0.7628,0.30594 0.029,0.10229 0.072,0.20193 0.1029,0.30385 0.2236,-0.0164 0.4358,0.12922 0.6543,0.19015 0.069,0.23384 0.2072,0.45795 0.2072,0.70179 0,0.14967 -0.1048,0.28532 -0.1974,0.40306 -0.1021,0.12962 -0.245,0.24368 -0.4072,0.33279 -0.062,0.23009 -0.1307,0.45996 -0.1608,0.6961 -0.016,0.0998 -0.011,0.20092 -0.011,0.30178 0.3667,0.42799 0.7337,0.85609 1.106,1.2795 0.168,0.19346 0.5109,0.57203 0.6604,0.79997 0.075,0.11509 0.2299,0.23137 0.1939,0.3643 -0.2868,1.07254 -0.5956,1.16777 -1.2772,0.64699 -0.2254,-0.2308 -0.4333,-0.47601 -0.6299,-0.73017 0.011,0.12835 -0.011,0.2581 -0.024,0.3829 -0.047,0.29906 -0.3974,0.61307 -0.7115,0.69456 0.011,0.35912 0.016,1.001 -0.052,1.03092 -0.1807,0.0785 -0.3339,0.13994 -0.4678,0.18759 0.4821,0.69914 0.9461,1.41052 1.4015,2.12701 0.2029,0.36867 0.7257,1.07638 0.2992,1.54874 -0.2098,0.2322 -0.622,0.16052 -0.9318,0.11782 -0.1527,-0.0212 -0.2424,-0.18978 -0.3543,-0.29559 -0.4006,-0.37809 -0.621,-0.67072 -0.9856,-1.10535 -0.1566,-0.19325 -0.3114,-0.38751 -0.4675,-0.58137 -0.082,0.37237 -0.186,0.75295 -0.3318,0.99788 -0.085,0.14287 -0.1458,0.39356 -0.3117,0.38859 -0.109,-0.003 -0.2135,-0.0284 -0.3151,-0.0651 -0.095,0.19143 -0.1905,0.3828 -0.286,0.57412 -0.013,0.0254 -0.028,0.0478 -0.042,0.0723 0.029,0.0845 0.033,0.15687 -0.011,0.20672 -0.013,0.0177 -0.024,0.0323 -0.037,0.0491 0.019,0.0386 0.028,0.0795 0.021,0.12403 -0.2648,1.73713 -0.963,1.01415 -1.6433,0.41908 0.011,0.0437 0,0.0879 -0.011,0.13229 -0.076,0.28466 -0.3497,0.5026 -0.6149,0.63614 -0.024,0.0313 -0.045,0.0527 -0.061,0.0595 -0.9488,0.41315 -1.184,0.30356 -1.2856,-0.48525 -0.011,-0.0519 0.021,-0.17023 0.061,-0.30075 -0.011,-0.006 -0.011,-0.0122 -0.016,-0.018 -0.1913,0.0109 -0.3813,0.0198 -0.5673,-0.0175 -0.1532,-0.0307 -0.5744,-0.45128 -0.7829,-0.66921 0.1069,0.1647 0.2138,0.32961 0.3183,0.49609 0.037,0.0919 0.1492,0.18616 0.1082,0.27596 -0.145,0.31591 -0.3069,0.68511 -0.6186,0.8387 -0.4786,0.23569 -1.5176,-1.37927 -1.6872,-1.6211 -0.957,-1.46124 -1.941,-2.90515 -2.9205,-4.35168 -0.2733,-0.43275 -0.5498,-0.86434 -0.8287,-1.29344 -0.1722,-0.25392 -0.3405,-0.50983 -0.5064,-0.7674 -0.3413,-0.51006 -0.6887,-1.0155 -1.049,-1.5131 -0.1003,-0.13134 -0.2009,-0.26297 -0.3009,-0.39428 -0.2667,-0.34925 -0.1635,-0.2091 -0.3757,-0.50125 -0.024,-0.0321 -0.1024,-0.0719 -0.07,-0.0956 0.1032,-0.0768 0.1924,-0.14483 0.2731,-0.20931 0.4511,-0.50311 0.6366,-0.75486 0.7982,-0.76584 0.1331,-0.33573 0.598,-0.47498 1.1613,-0.0584 0.186,0.13766 0.3717,0.27554 0.5569,0.41394 -0.063,-0.0825 -0.1251,-0.16457 -0.186,-0.24805 -0.2921,-0.39454 -0.5588,-0.78655 -0.7731,-1.22732 0.1641,-0.26937 0.2135,-0.67545 0.4514,-0.85577 0.1159,-0.21942 0.304,-0.40624 0.5456,-0.54001 -0.011,-0.0119 -0.016,-0.0225 -0.021,-0.0346 -0.065,-0.11226 -0.2479,-0.29461 -0.1381,-0.3638 0.358,-0.22587 0.807,-0.2491 1.2203,-0.35242 -0.045,-0.0583 -0.091,-0.10277 -0.056,-0.0744 0.026,0.0212 0.049,0.0455 0.071,0.0703 0.027,-0.006 0.051,-0.0124 0.076,-0.019 0.1016,0.0883 0.2029,0.17846 0.303,0.26871 0.124,-0.51856 0.4984,-0.98322 0.9622,-1.23558 0.162,-0.0881 0.3464,-0.12549 0.5197,-0.18809 0.1966,-0.003 0.3963,-0.0389 0.5903,-0.006 0.3429,0.0583 0.6694,0.24432 0.9197,0.50334 0.4082,-0.16163 0.8366,-0.26995 1.2506,-0.32247 0.019,-0.003 0.035,-0.004 0.052,-0.006 0.3458,-0.27141 0.757,-0.43682 1.1785,-0.44391 z m -6.285,3.32486 c -0.016,0.003 -0.021,0.005 -0.041,0.009 -0.016,0.007 -0.034,0.0124 -0.052,0.0175 0.013,0.0164 0.028,0.033 0.042,0.0496 0.021,-0.0151 0.041,-0.0303 0.061,-0.0454 0,-0.0101 -0.01,-0.0201 -0.01,-0.0305 z m -0.1968,0.0615 c -0.019,0.008 -0.034,0.0188 -0.048,0.0326 -0.021,0.0201 0.046,0.0413 0.075,0.0418 0.011,1.1e-4 0.016,-0.003 0.024,-0.005 -0.016,-0.023 -0.032,-0.045 -0.05,-0.0693 z m 4.2638,0.89607 c -0.088,0.0746 -0.1728,0.15298 -0.2546,0.2346 0.016,0.0738 0.028,0.14981 0.032,0.22739 v 0.0305 c 0.08,0.0843 0.155,0.16258 0.2336,0.24545 0.016,-0.0353 0.033,-0.0706 0.046,-0.10644 0.1016,-0.0606 0.1969,-0.13565 0.2977,-0.19791 -0.1302,-0.0955 -0.2344,-0.22741 -0.3172,-0.36589 -0.013,-0.0225 -0.027,-0.045 -0.037,-0.0677 z m 3.1284,0.4165 c -0.021,0.0246 -0.042,0.0491 -0.063,0.0739 -0.1471,0.11655 -0.2844,0.24675 -0.4344,0.35915 0.3156,0.19865 0.6114,0.43032 0.8948,0.67646 0.011,-0.18915 0.037,-0.3859 0.062,-0.58084 -0.1532,-0.17619 -0.3064,-0.35261 -0.4596,-0.52867 z m -2.2638,1.13636 c -0.019,0 -0.042,0.005 -0.063,0.0103 0.019,0.0204 0.04,0.0417 0.059,0.062 0.024,-0.0212 0.043,-0.0465 0.063,-0.0724 -0.018,2.3e-4 -0.04,-3e-5 -0.059,0 z m 4.0436,0.87387 c 0.011,0.006 0.038,0.0782 0.04,0.0615 0,-0.0111 -0.011,-0.0204 -0.011,-0.031 -0.011,-0.0101 -0.019,-0.0204 -0.028,-0.0305 z m 3.6576,1.95543 c -0.021,0.0938 -0.019,0.14261 0.042,0.0501 -0.016,-0.0183 -0.027,-0.0332 -0.042,-0.0501 z m -4.1677,4.59094 c 0.028,0.0336 0.054,0.0672 0.081,0.10076 0.01,-0.0196 0.019,-0.0393 0.029,-0.0589 -0.033,-0.0119 -0.073,-0.0273 -0.1101,-0.0419 z m -4.8977,2.32233 c -0.052,0.09 0,0.12692 0.14,0.22066 -0.046,-0.0739 -0.093,-0.14716 -0.14,-0.22066 z m -87.1828,17.06253 h 0.01 c 0.2132,0.0539 0.4453,0.0591 0.6397,0.16174 0.2135,0.11269 0.87,0.94927 0.938,1.03508 0.558,0.70167 1.1006,1.41583 1.6459,2.12751 0.059,-0.004 0.1292,-0.006 0.2136,-0.007 0.2196,-0.11756 0.4683,-0.1977 0.7001,-0.28372 -0.2654,-0.53448 -0.5263,-1.07153 -0.7814,-1.61126 -0.3222,-0.68212 -0.038,-1.1371 0.3601,-1.15395 0.2726,-0.0114 0.5983,0.18174 0.8197,0.64804 0.1908,0.40233 0.3858,0.80283 0.5818,1.20251 0.074,-0.0417 0.1138,-0.0766 0.2109,-0.12351 0.2426,-0.11739 0.5914,0.31234 0.8356,0.6785 0.4789,-0.39907 0.5519,-0.23593 0.8273,0.24495 0.3675,0.78187 0.6943,1.58303 1.079,2.35696 0.7099,1.25122 1.452,2.4842 2.1952,3.71555 1.0187,1.63539 2.0826,3.24233 3.0856,4.88754 0.227,0.35708 0.6731,1.16459 0.4376,1.61335 -0.1198,0.22847 -0.2844,0.51101 -0.5387,0.55552 -0.5228,0.0915 -0.9683,-0.25485 -1.339,-0.60669 0,0.18661 -0.011,0.37076 -0.1307,0.49715 -0.08,0.0835 -0.1889,0.12814 -0.308,0.15036 0.013,0.10451 0.019,0.20889 0,0.31213 -0.037,0.23114 -0.1312,0.45469 -0.2519,0.65527 -0.024,0.0378 -0.05,0.0731 -0.077,0.10747 0.047,0.11028 0.09,0.21233 0.1204,0.29147 0.086,0.22389 0.141,0.45828 0.2119,0.68728 -0.1968,0.31173 -0.2884,0.72739 -0.5858,0.94001 -0.016,0.25834 -0.1,0.46082 -0.2203,0.59375 0,0 0,0.003 0,0.003 0.01,1.3e-4 0.01,-1.1e-4 0.013,0 0.011,2.1e-4 0.016,0.0257 0.011,0.0206 -0.01,-0.007 -0.016,-0.0138 -0.024,-0.0206 0,-6e-5 0,0 -0.01,0 -0.1979,0.21632 -0.4884,0.24561 -0.7168,0.0284 -0.08,0.15449 -0.16,0.30904 -0.2391,0.46355 -0.07,0.13539 -0.097,0.22053 -0.093,0.26768 0.013,0.013 0.024,0.0236 0.045,0.0465 0.2773,0.0283 1.728,-1.3167 1.3296,-0.37465 l -0.249,0.58859 c -0.2593,0.0145 -0.5194,0.069 -0.7779,0.0439 -0.05,-0.005 -0.2095,-0.1619 -0.3027,-0.25789 -0.026,-0.003 -0.042,-0.0169 -0.045,-0.0465 -0.01,-0.007 -0.021,-0.0222 -0.024,-0.0249 -0.07,-0.0757 -0.1381,-0.15277 -0.2055,-0.23048 -0.5538,0.34605 -0.9525,-0.27863 -1.2475,-0.69762 0,0.003 -0.011,0.004 -0.011,0.006 -0.033,0.0897 -0.063,0.17894 -0.079,0.26614 -0.1495,0.0811 -0.2874,0.1882 -0.448,0.2434 -0.1407,0.0483 -0.3005,0.0807 -0.4651,0.0956 -0.6766,0.40946 -1.3579,0.8102 -2.0542,1.18543 -0.033,0.0299 -0.065,0.0568 -0.097,0.0801 0.088,0.55189 0.034,1.07529 -0.7221,1.25677 -0.016,0.0111 -0.032,0.0222 -0.05,0.0315 -0.09,0.0459 -0.177,0.072 -0.2625,0.0832 -0.048,0.15397 -0.3172,0.30015 -0.9488,0.71417 -0.068,0.0447 -0.1291,-0.10068 -0.186,-0.15918 -0.2442,-0.25164 -0.5792,-0.68034 -0.7805,-0.93223 -0.1818,-0.22746 -0.3622,-0.45614 -0.5429,-0.68418 -1.5796,-1.98173 -3.0597,-4.03837 -4.4511,-6.15675 -0.7901,-1.20944 -1.5804,-2.41935 -2.3641,-3.63286 -0.4676,-0.72353 -0.78,-1.23201 -1.2702,-1.92133 -0.1229,-0.1728 -0.2571,-0.33721 -0.3855,-0.50591 h 0.01 c -0.77,-1.01084 0.2143,-1.83113 0.986,-0.82164 0.1399,0.18302 0.2857,0.36129 0.4196,0.5488 0.5238,0.73345 0.8309,1.23439 1.3286,2.00451 0.3606,0.55777 0.7223,1.11461 1.0848,1.67122 -0.4551,-0.83347 -0.8941,-1.67545 -1.2849,-2.5404 0.016,0.003 0.028,-1.3e-4 0.036,-0.004 0,-0.014 0.011,-0.0285 0.013,-0.0424 -0.031,-0.12803 -0.3643,-0.47776 -0.2135,-0.52504 0.3998,-0.12517 0.835,-0.23992 1.248,-0.17724 0,-0.008 -0.011,-0.0156 -0.011,-0.0233 -0.01,-0.013 0.011,0.003 0.021,0.0238 l -0.011,-0.003 c 0.011,0.019 0.013,0.0379 0.021,0.0569 0.011,-0.008 0,-0.0326 -0.011,-0.0532 0.024,0.004 0.045,0.007 0.067,0.0124 0.19,0.0401 0.1958,0.33576 0.2911,0.50488 0.1751,0.31054 0.6426,1.158 0.8421,1.52032 -0.322,-0.76332 -0.6416,-1.52768 -0.962,-2.29187 -0.084,-0.20148 -0.1778,-0.39955 -0.2548,-0.60407 -0.042,-0.1134 -0.1995,-0.27591 -0.1024,-0.3483 0.3514,-0.2622 0.8149,-0.32454 1.2221,-0.48681 0.095,0.13097 0.1897,0.26258 0.2837,0.39431 0.071,-0.0827 0.1505,-0.15581 0.2455,-0.21137 0.089,-0.0522 0.1876,-3e-5 0.282,0.0734 0.131,-0.0151 0.2638,-0.0206 0.3908,-0.0238 0.011,-2.1e-4 0.013,0.003 0.021,0.003 -0.3294,-0.88725 -0.6612,-1.77329 -0.998,-2.65771 -0.1077,-0.13568 -0.2082,-0.27194 -0.1574,-0.41288 -0.021,-0.0542 -0.041,-0.10859 -0.062,-0.1628 -0.013,-0.0294 -0.027,-0.0582 -0.039,-0.0873 0.011,0.005 0.011,0.008 0.016,0.007 0.093,-0.0132 0.186,-0.0397 0.2784,-0.0703 0.2143,-0.24963 0.5225,-0.43688 0.7834,-0.64026 0.095,-0.0743 0.066,0.47294 0.1508,0.32967 0.011,0.0304 0.024,0.061 0.034,0.0915 0.011,0 0.013,0.003 0.019,0.003 0.2243,0.0476 0.2005,0.41346 0.3027,0.61907 0.232,0.46609 0.3757,0.74887 0.5262,1.03923 -0.06,-0.15029 -0.1191,-0.30046 -0.1789,-0.45064 -0.133,-0.33451 -0.3799,-0.94604 -0.5172,-1.31154 -0.043,-0.11361 -0.2101,-0.25945 -0.122,-0.34314 0.8835,-0.84124 0.9956,-0.84164 1.2264,-0.43098 0.028,0.005 0.041,0.041 0.05,0.0878 0.044,0.0809 0.091,0.17082 0.1513,0.27287 0.3485,0.64746 0.6985,1.29312 1.0528,1.93736 0.045,-0.006 0.094,-0.0101 0.1476,-0.0119 0.016,0 0.034,5e-5 0.052,0 -0.3106,-0.62251 -0.6173,-1.24658 -0.9163,-1.87481 -0.241,-0.50657 -0.4794,-1.01447 -0.7075,-1.52704 -0.1796,-0.40384 -0.5003,-0.78044 -0.5151,-1.22214 -0.016,-0.45492 0.2855,-0.86434 0.4283,-1.29656 z m 2.3286,4.26122 c 0.1905,0.39148 0.3828,0.78208 0.577,1.17152 0.072,-0.0524 0.1455,-0.10017 0.2223,-0.14264 -0.2691,-0.34083 -0.535,-0.68439 -0.7993,-1.02888 z m 3.7123,5.80586 c -0.031,0 -0.062,0.008 -0.093,0.0164 v 0.006 c 0.08,0.042 0.1572,0.0706 0.2207,0.0677 0.044,-0.003 -0.052,-0.0849 -0.095,-0.0889 -0.011,0 -0.021,-0.003 -0.033,0 z m -2.0452,0.18759 c -0.011,0.0169 -0.013,0.0336 -0.019,0.0548 0.013,0.022 0.026,0.0443 0.038,0.0661 0.011,-0.004 0.011,-0.006 0.019,-0.0119 -0.016,-0.0432 -0.024,-0.0747 -0.037,-0.10904 z m 2.7009,0.76327 c -0.055,0.0537 -0.1098,0.10805 -0.1662,0.15811 0.4429,0.73462 0.8988,1.46138 1.3666,2.17972 -0.1273,-0.25001 -0.2551,-0.49977 -0.3834,-0.7493 -0.038,-0.046 -0.071,-0.0914 -0.068,-0.13179 -0.209,-0.40616 -0.418,-0.81206 -0.6265,-1.21801 -0.041,-0.0794 -0.081,-0.15925 -0.1225,-0.23873 z m -2.0934,0.0315 c -0.052,0.0262 -0.1032,0.0507 -0.1561,0.0729 0.048,0.082 0.095,0.16401 0.1431,0.24598 0.011,-0.10631 0.011,-0.21262 0.013,-0.31885 z m -0.6789,1.73479 c 0.2101,0.49848 0.4228,0.99574 0.6403,1.49138 -0.011,-0.14761 -0.011,-0.2952 -0.011,-0.44289 -0.2106,-0.34885 -0.421,-0.69831 -0.6295,-1.04849 z m 168.0337,26.68879 v 0 c 0.204,-0.004 0.4133,0.19328 0.7368,0.50541 0.041,-0.0193 0.073,0.0291 0.1024,0.0982 0.1122,0.10774 0.2337,0.22437 0.3763,0.3519 1.0168,1.14252 2.0256,2.29171 3.0297,3.4458 1.1258,-1.12773 2.3133,-0.18592 3.3541,0.62529 0.2593,0.2209 0.5184,0.44302 0.7769,0.66508 0.067,-0.0657 0.1333,-0.13282 0.2,-0.19793 0.059,-0.058 0.1153,0.0299 0.1683,0.15917 0.2039,-0.0864 0.3116,0.33425 0.4699,0.49609 0.4146,0.42336 1.2543,1.25929 1.6353,1.63968 0.1643,0.1687 0.3316,0.33565 0.4967,0.50385 1.3843,1.23772 2.7492,2.49679 4.0862,3.78478 0.132,0.12417 1.5854,1.4283 2.1992,2.16731 0.1167,0.0337 0.1471,0.0151 0.032,0.0408 0.1694,0.20905 0.2672,0.37005 0.2326,0.43358 -0.616,1.12294 -1.0602,1.56527 -1.4666,1.6247 0.6276,0.88379 1.2771,1.8035 1.6568,2.36111 0.403,0.5924 1.225,1.65574 1.5545,2.68976 0.2428,0.15568 0.5114,0.3035 0.5426,0.51572 0.127,0.0774 0.2114,0.16058 0.1463,0.26715 -0.1492,0.24474 -0.3265,0.4871 -0.5252,0.71004 -0.2995,0.48125 -0.722,0.90024 -1.1782,1.21182 -0.1434,0.0978 -0.2709,-0.0599 -0.3963,-0.24289 -0.1,-0.0225 -0.186,-0.10015 -0.2641,-0.20257 -0.062,0.0117 -0.1222,0.0254 -0.1804,0.0424 -0.2958,-0.15301 -0.6165,-0.26326 -0.885,-0.45942 -0.9197,-0.67112 -1.5307,-1.53752 -2.2477,-2.41276 -0.6223,-0.75989 -1.2425,-1.52313 -1.8613,-2.28616 -0.083,-0.0822 -0.1651,-0.16479 -0.2485,-0.24702 0.2456,0.2943 0.4731,0.57055 0.6091,0.75137 0.2101,0.27969 0.3911,0.57806 0.5876,0.86714 -0.4101,0.42106 -0.7672,0.90318 -1.1816,1.31982 0.079,0.11049 0.1559,0.22196 0.2315,0.33486 0.2159,0.32488 0.7377,0.66379 0.5755,1.01854 -0.3556,0.77491 -1.13,1.30985 -1.8521,1.76321 -0.3246,0.20397 -0.6265,-0.89265 -0.9038,-0.7121 -0.5625,-0.51689 -1.116,-1.04569 -1.6872,-1.55393 -0.027,0.0353 -0.052,0.0702 -0.077,0.10544 0.09,0.15071 0.1817,0.30094 0.2759,0.44958 0.029,0.0421 0.05,0.0712 0.077,0.10904 0.085,0.075 0.1352,0.12964 0.089,0.1271 0.4776,0.68035 0.3397,0.66646 -1.5145,2.01179 -0.1778,0.12896 -0.9847,-0.92877 -1.0998,-1.04802 -0.685,-0.76806 -1.3925,-1.51651 -2.0402,-2.3182 -1.0197,-1.29447 -1.9101,-2.67882 -2.8194,-4.05246 -0.7448,-1.21931 -1.4298,-2.47433 -2.2014,-3.67731 -0.1495,-0.21556 -0.2093,-0.30324 -0.3154,-0.44699 -0.046,-0.0541 -0.093,-0.10763 -0.1394,-0.16227 -0.038,-0.029 -0.074,-0.0578 -0.064,-0.0832 -0.5834,-0.7524 -0.4085,-0.63903 1.1446,-1.35187 -0.6813,-0.7721 -1.3886,-1.5432 -1.7799,-2.50578 0.021,-0.18532 0,-0.38635 0,-0.57828 -0.075,-0.21873 -0.131,-0.43243 -0.1238,-0.57462 0.016,-0.33906 0.1482,-0.66249 0.2228,-0.99375 0.2442,-0.10374 0.4797,-0.24363 0.7196,-0.36586 -0.6215,-0.77219 -1.211,-1.56779 -1.7399,-2.40761 0.5543,-0.4818 0.9771,-1.20636 1.6034,-1.55339 -0.078,-0.10644 -0.1577,-0.21802 -0.2421,-0.33695 -0.118,-0.16587 -0.4352,-0.33438 -0.3344,-0.51157 0.7845,-1.38377 1.1062,-1.90754 1.4356,-1.91463 z m -138.3311,26.37102 c 0.367,0.01 0.9411,0.0914 1.836,0.20619 0.2638,0.0338 0.3333,0.41426 0.4945,0.62579 0.4834,0.6345 0.9541,1.2786 1.4211,1.92545 0.2987,-0.0784 0.5998,-0.13996 0.9075,-0.1633 0.1555,-0.0119 0.127,0.28459 0.1902,0.42738 0.1162,0.26411 0.2299,0.52899 0.3482,0.79169 0.1712,0.31081 0.3485,0.61831 0.5323,0.92242 0.9711,-0.56722 1.1232,-0.54965 1.369,-0.007 0.011,0.007 0.011,0.0169 0.013,0.0274 0.088,0.19707 0.1911,0.45533 0.348,0.78031 1.1144,2.16049 2.3921,4.23064 3.643,6.31383 1.0742,1.76491 2.1468,3.53124 3.2091,5.30355 0.1188,0.15605 0.2384,0.31269 0.3572,0.46871 0.9628,1.25005 1.9167,2.50709 2.867,3.76669 0.2175,0.21516 0.4393,0.4254 0.662,0.63561 0.5228,0.49419 0.7533,0.99798 0.7771,1.42679 0.024,0.0415 0.046,0.0823 0.067,0.12454 -0.024,0.0175 -0.046,0.0369 -0.07,0.0548 -0.05,0.58206 -0.5072,0.98351 -1.1348,0.95549 -0.2622,0.20252 -0.5384,0.37815 -0.8495,0.48472 -0.2694,0.0922 -0.4345,-0.36864 -0.629,-0.57618 -0.2524,-0.26932 -1.2416,-1.52109 -1.4417,-1.78337 -0.1098,-0.14404 -0.1741,-0.23342 -0.2667,-0.35605 -0.073,0.0528 -0.2106,-0.0143 -0.3778,-0.14727 0.232,0.35605 0.463,0.71271 0.6961,1.06815 0.2622,0.39952 0.721,0.72207 0.7901,1.19475 0.011,0.0475 0.013,0.0951 0.016,0.14264 0.1046,0.0928 0.1718,0.16851 0.074,0.17621 -0.021,0.003 -0.043,0.003 -0.065,0.003 0.011,0.64801 -0.226,1.2987 -0.3066,1.94767 -0.5337,-0.10213 -1.0952,-0.10549 -1.6008,-0.30644 -0.1989,-0.0793 -0.277,-0.32763 -0.4114,-0.49453 -0.091,-0.11306 -0.1818,-0.22738 -0.2723,-0.34107 -0.2307,0.67564 -0.5302,0.8973 -1.0501,0.68524 0.064,0.11935 0.081,0.23143 -0.011,0.3266 -0.5702,0.62497 -1.5248,0.73589 -2.2868,1.10382 -0.044,-0.0622 -0.087,-0.12518 -0.1301,-0.18759 -1.763,2.33365 -3.0864,-0.58759 -3.7532,-1.78491 -0.2513,-0.4455 -0.4995,-0.89217 -0.7474,-1.33945 -0.4699,0.0793 -0.9888,0.0384 -1.4565,0.018 -0.1852,-0.008 -0.2223,-0.29747 -0.3226,-0.4532 -0.1891,-0.29242 -0.3638,-0.59429 -0.5334,-0.89864 -1.2218,1.3838 -1.4134,0.84014 -2.0592,-0.0206 -0.8345,-1.7784 -1.4716,-3.63974 -2.037,-5.52265 -0.071,-0.18365 -0.1429,-0.36732 -0.2141,-0.55089 -1.1565,-3.19984 -2.3278,-6.39863 -3.2856,-9.66504 -0.076,-1.26188 -0.291,-1.46471 2.5292,-0.96634 0.3619,0.0639 0.4119,0.6087 0.6088,0.91932 0.016,0.023 0.03,0.0461 0.043,0.0692 -0.1233,-0.26429 -0.2394,-0.53181 -0.3365,-0.80613 -0.053,-0.14925 -0.2606,-0.38489 -0.1209,-0.45942 2.5945,-1.38388 2.1378,-1.29765 3.3657,0.19174 0.1837,0.22265 0.3644,0.44722 0.5461,0.67074 0.016,-0.0267 0.034,-0.0577 0.049,-0.0837 -0.5625,-1.13604 -1.1205,-2.2747 -1.6629,-3.42045 -0.3495,-0.73689 -0.6852,-1.45894 -0.944,-2.23089 -0.021,-0.86283 -0.1251,-1.16914 0.4659,-1.19216 0.044,-0.003 0.093,-0.003 0.1448,0 z m 0.5088,5.52161 v 0 c 0,0 0,0 0,0 z m 0,0 c 0,1.4e-4 -0.01,1.4e-4 -0.01,0.003 0,0.01 0.011,0.0284 0.016,0.0393 0.01,-0.004 0.01,-0.008 0.016,-0.0135 0.011,-0.007 -0.013,-0.0241 -0.024,-0.0285 z m 6.7424,12.40597 c 0.088,0.15494 0.1767,0.31015 0.2656,0.46509 -0.058,-0.11523 -0.1166,-0.23051 -0.1751,-0.34571 -0.03,-0.0398 -0.061,-0.0795 -0.09,-0.11938 z m 172.8131,30.09998 v 0 c 0.2376,0.006 0.4578,0.072 0.6869,0.31576 0.019,0.0209 0.038,0.0427 0.056,0.0651 0.1082,0.0193 0.2236,0.0657 0.3601,0.15502 0.1604,0.10493 0.2739,0.23622 0.3485,0.38137 0.084,-0.0206 0.168,-0.029 0.2495,-0.0238 0.2532,-0.33653 0.6223,0.0778 0.9191,0.5126 0.03,0.0193 0.058,0.0426 0.084,0.0698 0.1146,-0.0825 0.2368,-0.15039 0.3672,-0.19894 0.2519,-0.0937 0.5345,-0.0743 0.8007,-0.11163 0.227,0.10766 0.4855,0.16579 0.6815,0.32298 0.39,0.31263 0.6099,0.82857 0.6946,1.34617 0.011,-2e-5 0.021,-1.5e-4 0.032,0 0.024,-0.005 0.05,-0.01 0.079,-0.014 -0.011,-0.2454 -0.011,-0.49146 0.011,-0.73948 0.2725,-0.18971 0.49,-0.62762 0.817,-0.56947 0.3194,0.0568 0.4165,0.51023 0.539,0.81079 0.08,0.19696 0.03,0.42429 0.048,0.63614 0.018,0.22876 0.04,0.45723 0.062,0.68575 0.1495,0.28284 0.2987,0.56581 0.4474,0.84905 0.1596,0.31202 0.3199,0.62293 0.4776,0.93585 0.1318,0.26186 0.5823,1.16213 0.74,1.5167 0.043,0.0958 0.1892,0.22262 0.1122,0.29406 -0.136,0.12668 -0.2537,0.23434 -0.3556,0.32554 0.013,0.0443 0.021,0.0846 0.028,0.11732 0.047,0.27157 0.013,0.55091 0.024,0.82629 -0.1717,0.10586 -0.3291,0.24916 -0.4982,0.3633 0.066,0.37116 0.1326,0.74208 0.1977,1.1131 -0.016,-0.007 -0.031,-0.0124 -0.044,-0.0175 0.077,0.16007 0.1825,0.32859 0.076,0.43564 v 0.003 c 0.113,0.18714 0.2085,0.3642 0.1,0.38293 -0.042,0.007 -0.085,0.0148 -0.1293,0.0222 0.01,0.0227 0.016,0.0451 0.024,0.0677 -0.1127,0.0454 -0.2228,0.10263 -0.3329,0.16073 0.011,0.0644 0.013,0.1288 0.021,0.19326 0.089,0.11102 0.1569,0.24609 0.1958,0.40928 0.053,0.22566 -0.035,0.46236 -0.053,0.6935 -0.013,0.0151 -0.024,0.031 -0.035,0.0465 0,0.0414 0.011,0.0827 0.011,0.12401 0.2323,0.43178 0.457,0.86718 0.6858,1.3007 0.2278,0.5112 0.8419,1.51431 0.4408,2.15026 -0.6268,0.99431 -1.8492,-0.28831 -2.2299,-0.64442 -0.3455,-0.32326 -0.6731,-0.66561 -1.0094,-0.99837 -0.1082,-0.1196 -0.2151,-0.23966 -0.3228,-0.35968 -0.072,0.0435 -0.1444,0.087 -0.214,0.13385 -0.099,-0.0233 -0.2037,-0.0335 -0.3085,-0.0445 -0.073,0.091 -0.1498,0.17929 -0.2299,0.26512 0.1701,0.24968 0.3373,0.50046 0.5013,0.75189 0.2609,0.39973 0.5017,0.8123 0.7523,1.21854 0.3452,0.95091 0.8048,1.24026 -0.6541,1.63089 -0.095,0.0254 -0.1786,-0.039 -0.2564,-0.11782 0.074,0.14991 0.1381,0.30776 0.079,0.45008 -0.4683,1.13456 -1.0125,0.75962 -1.6258,0.28062 -0.042,-0.0372 -0.082,-0.0752 -0.1252,-0.11266 -0.073,0.0337 -0.1561,0.0704 -0.2532,0.1106 -0.178,0.44966 -0.2423,0.41452 -0.4604,0.18293 -0.01,0.003 -0.013,0.006 -0.021,0.009 -0.1395,0.0538 -0.2233,-0.19899 -0.3271,-0.30594 -0.1158,-0.11877 -0.2256,-0.24344 -0.3365,-0.36689 0.067,0.30834 0.1357,0.6161 0.2037,0.92397 0.094,0.43889 0.049,0.23241 0.1328,0.62064 0.2681,1.24198 -0.9863,1.51275 -1.2546,0.2708 -0.084,-0.38899 -0.04,-0.18381 -0.132,-0.61495 -0.2207,-1.00346 -0.4519,-2.00758 -0.5766,-3.02826 -0.1674,-0.18312 -0.3386,-0.36317 -0.5045,-0.54777 -0.3072,0.1541 -0.6019,0.36074 -0.9311,0.42426 -0.026,0.0209 -0.053,0.0418 -0.077,0.0636 0.081,0.10758 0.089,0.12184 -0.05,-0.046 -0.1291,0.009 -0.1788,-0.15502 -0.2384,-0.29456 -0.3519,-0.43405 -0.6945,-0.87625 -1.0274,-1.32498 -0.2463,-0.33901 -0.5717,-0.78018 -0.8008,-1.12345 -0.4064,-0.60719 -0.7827,-1.23412 -1.1518,-1.86499 -0.6519,-0.89861 -1.316,-1.78813 -1.9973,-2.66494 -0.1556,-0.20095 -0.3133,-0.40007 -0.4689,-0.6005 -0.068,-0.0583 -0.1238,-0.1208 -0.1492,-0.19378 -0.1209,-0.15816 -0.2413,-0.31713 -0.3572,-0.47955 0.1276,-0.0518 0.253,-0.12235 0.3773,-0.19431 0,-0.003 0,-0.003 -0.011,-0.005 -0.6495,-0.8704 0.038,-1.4918 0.7337,-1.02473 0.059,-0.0388 0.1186,-0.0784 0.1778,-0.11731 0.1728,-0.17698 0.3773,-0.33753 0.5334,-0.52348 0.059,0.0754 0.1167,0.1524 0.1747,0.22995 0.01,0 0.019,0 0.026,0.003 -0.037,-0.0638 -0.075,-0.12726 -0.1143,-0.19068 -0.05,-0.0638 -0.088,-0.11925 -0.1138,-0.16949 -0.055,-0.0514 -0.1323,-0.10449 -0.086,-0.13693 0.021,-0.0151 0.035,-0.0249 0.056,-0.0393 0.021,-0.0741 0.095,-0.14906 0.23,-0.24132 -0.2093,-0.35269 -0.4125,-0.70927 -0.6067,-1.07125 0.2945,-0.33864 0.5186,-0.7548 0.8832,-1.01597 0.088,-0.0625 0.1727,0.12938 0.2471,0.20619 0.1029,0.10509 0.1942,0.22159 0.2841,0.33745 0.054,0.0697 0.1067,0.14065 0.1596,0.21135 0.036,-0.0111 0.073,-0.0209 0.1106,-0.0294 0.024,-0.0453 0.051,-0.0907 0.087,-0.13695 -0.084,-0.0408 -0.1625,-0.0892 -0.23,-0.15346 -0.1505,-0.14396 -0.1963,-0.37864 -0.2185,-0.58602 -0.062,-0.57359 0.4045,-1.11464 0.8914,-1.33533 0.081,-0.0365 0.1651,-0.0606 0.2511,-0.0811 0.013,-0.047 0.027,-0.0932 0.047,-0.13745 0.3148,-0.68654 1.2218,-1.03106 1.9277,-0.7669 0.1482,-0.12663 0.3045,-0.23606 0.4612,-0.32297 0.1778,-0.0985 0.3775,-0.1523 0.5659,-0.22842 0.2223,-0.0119 0.4199,-0.0443 0.6072,-0.0403 z m 5.1837,4.06951 c -0.01,0.0357 -0.018,0.0711 -0.031,0.10646 0.033,0.005 0.07,0.003 0.1101,-0.006 -0.026,-0.0351 -0.052,-0.068 -0.079,-0.10025 z m -2.141,2.54611 v 0 c -0.074,0.0153 -0.1527,0.0328 -0.2434,0.0558 -0.019,-0.0101 -0.037,-0.0193 -0.056,-0.029 -0.2506,0.0888 -0.5247,0.19521 -0.7758,0.12145 -0.073,-0.0214 -0.1426,-0.052 -0.2098,-0.0894 0.5834,0.63154 1.3277,1.43627 1.4944,1.61902 0.077,0.0841 0.1524,0.16901 0.2294,0.25323 0,0 0.011,-0.003 0.011,-0.004 0.1878,-0.0758 0.3897,-0.10473 0.5879,-0.14886 -0.3408,-0.59534 -0.6864,-1.18835 -1.0351,-1.77869 z m -5.5059,0.19328 v 0.003 l 0.01,-0.003 z m 0,0.003 h -0.01 v 0 c 0,0 0.01,0 0.01,0 z m -0.01,0 c 0,0 0,0.003 -0.01,0.003 0.7408,1.10654 1.4835,2.21175 2.2283,3.31557 0.019,0.0201 0.035,0.0389 0.052,0.0589 0,-0.11639 -0.011,-0.23286 -0.011,-0.34933 -0.5027,-0.67654 -0.9977,-1.35877 -1.506,-2.03139 -0.2553,-0.33013 -0.5064,-0.66199 -0.7575,-0.99529 z m 3.6348,4.85706 c 0,0.0303 0,0.06 0.011,0.0904 0.1479,0.171 0.2942,0.34411 0.4429,0.51469 -0.1479,-0.20328 -0.3006,-0.40232 -0.4485,-0.60513 z m 3.3245,6.03943 c 0.047,0.0344 0.095,0.0684 0.1421,0.10335 0.043,0.0328 -0.072,-0.10033 -0.1323,-0.10335 z m -87.1416,20.47264 c 0.1056,0.0702 0.2191,0.13118 0.3183,0.21085 0.1326,0.10702 0.4236,0.46495 0.5014,0.56274 0.041,0.0516 0.081,0.10401 0.1225,0.15608 0.1143,-0.0652 0.227,-0.13174 0.3373,-0.20257 0.8973,0.82333 1.7161,1.72559 2.5509,2.6107 1.1676,1.22941 2.2979,2.49298 3.3573,3.81683 0.079,0.10059 0.1582,0.20076 0.2368,0.30125 0.3138,0.35023 0.6133,0.71239 0.8951,1.09194 0,0.003 0,0.003 -0.011,0.004 -0.011,-0.006 -0.011,-0.0106 -0.019,-0.01 0.011,0.005 0.011,0.0109 0.016,0.0161 v 0.003 c 0.016,0.0201 0.031,0.0484 0.021,0.0372 -0.011,-0.0122 -0.021,-0.0246 -0.03,-0.0367 -0.263,0.28382 -0.5094,0.58367 -0.7718,0.86818 0.036,0.0453 0.072,0.0906 0.1084,0.13591 0.2445,0.34216 1.2018,1.52355 0.9285,1.96991 -0.2662,0.43598 -0.5393,0.62462 -0.8033,0.66249 -0.1704,0.16488 -0.354,0.30786 -0.5723,0.39531 -0.2045,0.082 -0.3217,-0.30297 -0.4635,-0.47181 -0.1556,-0.18557 -0.3022,-0.38608 -0.4438,-0.59531 -0.1106,0.3452 -0.2635,0.68067 -0.4119,0.98859 0.2212,0.35174 0.3096,0.49202 0.8676,1.35959 0.1487,0.23074 0.5331,0.43222 0.4466,0.69247 -0.7263,2.17209 -1.0967,1.57474 -1.8931,0.80409 -0.2728,-0.29421 -0.5416,-0.59126 -0.8086,-0.88987 -0.4474,0.43098 -0.958,0.80687 -1.4925,1.0945 -0.2286,0.12311 -0.4585,0.26326 -0.7141,0.3106 -0.3411,0.0632 -0.6932,0.0111 -1.0404,0.0156 -0.1232,-0.20865 -0.2817,-0.40265 -0.4164,-0.60667 -0.038,0.24109 -0.1177,0.46503 -0.2918,0.61495 -0.381,0.32853 -0.7067,0.32155 -0.9949,0.18809 -0.089,0.66974 -0.34,1.06614 -1.0909,1.16274 -0.2328,0.0299 -0.4561,-0.11039 -0.6847,-0.16537 -0.5651,-0.3923 -1.0644,-0.86595 -1.5735,-1.32707 -0.1675,-0.16975 -0.3336,-0.3415 -0.4971,-0.51519 -0.1151,0.0544 -0.2318,0.10641 -0.3411,0.16846 -0.3283,0.003 -0.6725,0.10035 -0.9866,0.005 -1.3504,-0.41291 -1.2861,-2.19935 -1.2144,-3.29126 0.016,-0.0847 0.032,-0.16388 0.046,-0.23876 -0.1492,-0.25204 -0.2977,-0.50411 -0.4485,-0.75499 -0.568,-0.97766 -1.1144,-1.96683 -1.6846,-2.94299 -0.5249,-0.89693 -1.0639,-1.78567 -1.5989,-2.67631 -0.9255,-1.54019 0.6679,-2.39689 1.5995,-0.8604 0.045,0.0736 0.089,0.14751 0.1328,0.22117 0.055,-0.0765 0.1198,-0.16539 0.1958,-0.2749 0.4471,-0.54058 0.88,-1.10247 1.3713,-1.60404 0.079,-0.0808 0.1455,-0.25638 0.254,-0.22479 0.086,0.0251 0.1712,0.0561 0.254,0.0894 0.2818,-0.22314 0.5734,-0.42955 0.8782,-0.61235 -0.066,-0.14777 -0.13,-0.29707 -0.1892,-0.44751 -0.035,-0.0882 -0.1606,-0.20058 -0.094,-0.26871 0.4027,-0.41357 0.9176,-0.69977 1.3761,-1.04955 0.2016,0.19738 0.4143,0.3842 0.6048,0.59219 0.086,0.0931 0.1667,0.18917 0.2469,0.2863 0,-0.29347 0.1526,-0.57346 0.2217,-0.86092 0.1722,-0.12402 0.3265,-0.27938 0.5178,-0.37209 0.1378,-0.067 0.2976,-0.0834 0.4506,-0.0977 0.6961,-0.0633 1.3417,0.20723 1.937,0.54415 0.2524,-0.19791 0.5387,-0.36957 0.7755,-0.57981 z m 1.4579,0.97878 c 0.011,0.0135 0.019,0.029 0.024,0.0367 0.018,0.0233 0.038,0.0453 0.057,0.0682 -0.011,-0.0322 -0.048,-0.0683 -0.081,-0.10488 z m -3.9894,0.83454 c -0.059,0 -0.1143,0.0122 -0.1617,0.0362 -0.013,0.007 0.027,0.0279 0.043,0.0233 0.047,-0.0161 0.093,-0.0369 0.1378,-0.0589 -0.011,-1.6e-4 -0.013,0 -0.019,0 z m -5.7145,3.9822 c 0.073,0.12258 0.1463,0.24521 0.2196,0.36795 0.034,-0.0376 0.07,-0.0735 0.1069,-0.10803 0,-0.0161 0,-0.0326 0.011,-0.0485 -0.1278,-0.0833 -0.2307,-0.14785 -0.3334,-0.21137 z m 8.4487,3.61479 c 0.1156,0.20277 0.2299,0.40597 0.3442,0.60925 0.2553,0.14245 0.4667,0.3665 0.6215,0.62992 -0.013,-0.0345 -0.024,-0.0702 -0.034,-0.10644 -0.3104,-0.37719 -0.621,-0.75475 -0.9311,-1.13273 z m 1.0702,1.44073 c 0.1143,0.25323 0.1797,0.52996 0.1871,0.79891 0.1701,-0.007 0.3434,-0.01 0.5151,0 -0.024,-0.0535 -0.043,-0.10932 -0.061,-0.1664 -0.09,-0.10805 -0.1799,-0.21574 -0.2699,-0.324 -0.1505,-0.0569 -0.2783,-0.1673 -0.3715,-0.30851 z m 1.0676,4.26019 v 0.003 c -0.016,0.0266 -0.034,0.0528 -0.048,0.0806 -0.011,0.0201 0.068,0.0233 0.068,0 -0.01,-0.0275 -0.013,-0.0548 -0.019,-0.0822 z m -181.1419,40.11486 v 0 c 0.6789,-0.0161 1.4957,0.39137 2.2138,1.39631 0.3855,0.53962 0.7764,1.07532 1.1674,1.61023 0.1703,-0.17042 0.3766,-0.31541 0.647,-0.40926 0.556,-0.19302 1.1893,-0.0415 1.7637,0.0868 0.3262,0.0729 0.8634,0.68995 1.0873,0.92241 0.7973,0.91898 1.359,1.98033 1.8929,3.06287 0.2753,0.46062 0.5044,0.94213 0.7167,1.43196 1.0989,1.21946 2.1468,2.48501 3.0924,3.82664 0.852,1.2927 1.9073,2.8494 1.819,4.49895 0.3016,1.26378 -0.4549,2.16844 -1.5064,2.11666 -0.2402,0.1179 -0.4824,0.23368 -0.7085,0.36949 -0.4892,-0.12639 -1.002,-0.18317 -1.4676,-0.3793 -0.2649,-0.11166 -1.1996,-0.99349 -1.3777,-1.16324 -0.2419,-0.23059 -0.4799,-0.4644 -0.7157,-0.70126 -0.02,0.0595 -0.044,0.11729 -0.073,0.17415 -0.21,0.41185 -0.5743,0.74811 -0.9772,0.99322 0.5264,0.63148 1.0965,1.22312 1.6097,1.86553 -0.7535,0.9136 -1.3249,2.01366 -2.2598,2.74039 -0.217,0.16862 -0.4704,-0.28448 -0.694,-0.44442 -1.065,-0.76224 -2.0236,-1.6946 -3.0169,-2.54505 -1.3364,-1.1978 -2.8212,-2.20718 -4.1248,-3.44115 -0.9575,-0.83798 -1.7819,-1.75911 -2.4009,-2.87268 -0.2582,-0.69686 -0.4253,-1.03474 -0.2382,-1.27537 -1.2014,-1.09443 -2.3616,-2.24489 -3.2613,-3.6003 -1.9878,-2.99391 0.9476,-4.38483 3.2474,-1.62316 0.07,0.0841 0.1404,0.16716 0.2118,0.25011 -0.094,-0.8962 0.2108,-1.70704 1.4098,-2.18591 -0.025,-0.0288 -0.04,-0.0571 -0.04,-0.0842 -0.027,-0.0459 -0.054,-0.0921 -0.082,-0.13796 -0.051,-0.0857 -0.2019,-0.34417 -0.1509,-0.25839 0.4643,-0.27662 0.9131,-0.58293 1.3674,-0.87953 -1.1871,-1.83639 -0.4058,-3.31374 0.8475,-3.34451 z m 6.4662,14.48077 c -0.029,0 -0.06,0.003 -0.093,0.006 0.038,0.034 0.076,0.0675 0.1173,0.0987 0.1544,0.11912 0.2432,0.12812 0.2719,0.0972 -0.054,-0.0602 -0.1085,-0.12062 -0.1628,-0.18084 -0.038,-0.0117 -0.083,-0.0188 -0.1339,-0.0196 z"/>
    </clipPath>
    <radialGradient inkscape:collect="always" xlink:href="#linearGradient4116" id="radialGradient13577" cx="3209.7947" cy="833.63837" fx="3209.7947" fy="833.63837" r="291.57104" gradientTransform="matrix(0.16596493,-0.00695634,8.5454934e-4,0.02038792,-532.24891,225.95442)" gradientUnits="userSpaceOnUse"/>
    <radialGradient inkscape:collect="always" xlink:href="#linearGradient4116" id="radialGradient350" cx="3209.7947" cy="833.63837" fx="3209.7947" fy="833.63837" r="291.57104" gradientTransform="matrix(0.68697713,-0.02879431,0.00353723,0.08439153,-311.45689,2315.9236)" gradientUnits="userSpaceOnUse"/>
  </defs>
  <g inkscape:label="Calque 1" inkscape:groupmode="layer" id="layer1">
    <ellipse style="fill:#ffffff;fill-opacity:1;stroke-width:0.183365" id="circle3884" cx="100.19276" cy="148.14215" inkscape:export-filename="rezaldeuxiemejet.png" inkscape:export-xdpi="96" inkscape:export-ydpi="96" rx="70.625793" ry="73.488441"/>
    <path id="path3886" style="fill:url(#radialGradient4118);fill-opacity:1;stroke-width:0.513997" d="m 2651.4828,597.60763 c -3.7484,2.62245 -3.9649,8.34715 0.631,10.95709 2.5771,1.46346 5.0043,1.3667 7.4166,-0.29619 1.6338,-1.12638 1.8715,-1.60518 2.3461,-4.73864 l 0.5277,-3.48513 37.8179,-26.06901 37.8179,-26.06901 21.0852,3.88194 21.0843,3.8825 -24.1751,16.66447 -24.1749,16.66446 -2.1012,-0.68665 c -3.7739,-1.23252 -7.3791,0.72939 -8.4388,4.59172 -1.1032,4.02187 1.631,7.96618 5.8008,8.36759 1.6436,0.15834 2.4934,-0.11167 4.3266,-1.37538 2.0465,-1.41085 2.329,-1.83199 2.7458,-4.0985 0.2556,-1.38934 0.3376,-2.71016 0.1826,-2.93517 -0.1788,-0.26034 13.6627,-10.02172 38.0617,-26.84055 l 38.3436,-26.43144 23.6832,4.276 23.6824,4.27666 25.3982,-17.50783 25.3983,-17.50772 3.2446,0.57282 c 2.8505,0.50317 3.4665,0.41709 5.0804,-0.70263 1.0105,-0.70147 2.1432,-1.8371 2.5176,-2.52437 0.9333,-1.71326 0.8166,-5.18179 -0.2249,-6.69258 -3.9206,-5.68774 -13.1871,-2.399 -12.3269,4.37485 l 0.2077,1.63688 -25.0658,17.27871 -25.0653,17.27817 -23.9448,-4.40776 -23.9453,-4.40732 -12.2777,8.46326 -12.2769,8.46273 -23.588,-4.34147 -23.5871,-4.34214 -39.0184,26.89636 -39.0182,26.89638 -1.6161,-0.74908 c -0.8893,-0.41171 -2.4239,-0.61796 -3.4108,-0.45826 -1.2254,0.19829 -2.279,0.6391 -3.144,1.24424 z m 2.1626,1.64415 c 0.7129,-0.39349 1.542,-0.60083 2.4328,-0.53206 1.1745,0.0907 1.8352,0.54364 2.7718,1.90213 0.9363,1.35851 1.124,2.13626 0.7912,3.26629 -1.0103,3.42727 -5.797,4.37425 -7.7549,1.53395 -1.4685,-2.13023 -0.38,-4.98964 1.7591,-6.17031 z m 82.136,-40.19696 c -0.2739,0.18961 -0.5235,0.40144 -0.7406,0.6324 -1.4659,1.56086 -2.4102,4.10961 -2.0093,5.42349 0.3069,1.00436 -0.2326,1.39311 -38.7035,27.91206 l -39.0131,26.89286 -4.3996,23.94631 -4.3992,23.94618 -46.7088,32.19749 -46.7076,32.19686 -2.7338,-0.67242 c -2.2609,-0.55618 -3.0943,-0.47934 -4.8234,0.44616 -5.0128,2.68311 -5.0683,9.15466 -0.099,11.70961 1.9025,0.97853 5.1168,0.88056 6.6892,-0.20326 1.7911,-1.23456 3.0686,-3.87957 2.9161,-6.0376 l -0.1495,-2.11266 35.0865,-24.18595 35.0862,-24.18595 57.6428,10.49817 57.6439,10.49769 42.8853,-29.54138 42.8861,-29.54068 2.029,0.55721 c 1.1159,0.30617 2.7845,0.4094 3.7073,0.22924 l 7e-4,8.5e-4 c 2.1794,-0.42572 2.9842,-0.98385 4.2477,-2.94886 2.7615,-4.29396 -1.1408,-10.69436 -6.2194,-10.20062 -2.391,0.23249 -5.2577,2.57233 -5.8655,4.78712 -0.2954,1.07716 -0.3989,2.41251 -0.2289,2.96702 0.3032,0.99318 -0.3834,1.48486 -42.302,30.3805 l -42.6098,29.37208 -54.6884,-10.05963 -54.6894,-10.05897 10.3699,-7.14827 10.3699,-7.14823 4.3338,-23.58884 4.3338,-23.58872 38.4073,-26.4753 c 32.5914,-22.46617 38.4692,-26.38579 38.8149,-25.88431 0.2239,0.32502 1.488,0.71789 2.8086,0.87313 1.8805,0.22112 2.7875,0.0156 4.1812,-0.95329 2.2773,-1.58159 3.1457,-3.2067 3.118,-5.83157 -0.027,-2.49013 -1.106,-4.22702 -3.4851,-5.6024 -1.9235,-1.11208 -5.0636,-0.82503 -6.9818,0.50248 z m 1.3258,2.14284 c 0.2214,-0.1593 0.4665,-0.30451 0.7366,-0.43339 3.7063,-1.76706 7.5537,2.01258 5.6611,5.56085 -0.9088,1.7038 -1.4816,2.13486 -3.0535,2.29734 -4.5394,0.46942 -6.6595,-5.03617 -3.3442,-7.4248 z m -11.5889,29.67648 c 1.2854,-0.88614 4.9181,-0.10156 5.861,1.26621 0.4668,0.67707 0.6211,1.95288 0.3892,3.21276 -0.7473,4.06452 -5.4567,4.90946 -7.8027,1.40009 -1.1201,-1.67632 -0.3583,-4.56207 1.5525,-5.87906 z m -20.9414,32.57866 c -1.5567,1.0746 -2.9368,2.40427 -3.6987,3.68364 -3.6882,6.19253 -1.3324,14.06359 5.1611,17.24248 5.3785,2.6332 11.743,1.26891 14.983,-3.21226 2.1558,-2.98181 3.0642,-5.8667 2.704,-8.58475 l -0.2901,-2.19122 45.1695,-31.13651 45.1705,-31.13716 22.5146,4.14486 22.5149,4.14494 61.021,-42.06354 61.0212,-42.06347 2.0852,1.02076 c 2.6278,1.2865 6.9526,1.39279 9.62,0.23691 l 7e-4,8.2e-4 c 2.9329,-1.27094 2.8483,-1.20715 4.7833,-3.60695 1.0296,-1.27684 2.0379,-3.33643 2.4219,-4.94697 2.5939,-10.87993 -9.4946,-19.26174 -18.6636,-12.94014 -3.8978,2.68747 -5.8269,6.76017 -5.3485,11.29302 l 0.3044,2.88597 -59.3184,40.88977 -59.3176,40.88924 -22.5438,-4.12489 -22.5438,-4.12501 -46.5961,32.11999 -46.5963,32.12 -1.0051,-0.8836 c -1.4649,-1.28857 -6.2221,-2.26901 -8.7916,-1.81167 -1.4709,0.26143 -3.2048,1.08112 -4.7617,2.15574 z m -158.4197,111.03697 c 3.17,-2.18518 6.9493,0.28975 6.3857,4.18206 -0.5102,3.52425 -5.4871,4.48014 -7.5725,1.45476 -1.302,-1.88864 -0.8011,-4.26644 1.1868,-5.63682 z m 365.1465,-230.31764 c 0.2213,-0.15931 0.4664,-0.30452 0.7366,-0.4334 3.7061,-1.76709 7.5536,2.01256 5.6607,5.56085 -0.9084,1.7038 -1.4813,2.13486 -3.053,2.29734 -4.5396,0.46945 -6.6599,-5.03616 -3.3443,-7.42479 z m -224.4956,161.4889 c -3.9166,2.52077 -4.3012,8.94609 0.5298,11.52303 4.5756,2.44086 10.3436,-1.54728 9.6895,-6.69884 l -0.2205,-1.73667 42.2096,-29.09126 42.2092,-29.09115 54.4386,9.91832 c 29.9418,5.45518 54.502,10.00966 54.5781,10.12002 0.075,0.11039 -4.2912,3.25301 -9.704,6.98421 l -9.8416,6.78417 -4.3996,23.9463 -4.3993,23.9462 -38.1546,26.30099 -38.1538,26.30034 -1.9213,-0.89103 c -1.9625,-0.91023 -4.8891,-0.65718 -6.6801,0.57734 -1.5668,1.08019 -2.8055,4.04809 -2.5893,6.2038 0.3519,3.50937 3.8807,6.33446 7.4225,5.94255 0.8266,-0.0914 2.2018,-0.81718 3.378,-1.78234 1.7276,-1.41759 2.029,-1.99091 2.3304,-4.44122 l 0.3457,-2.8134 38.8784,-26.80011 38.8792,-26.80058 4.334,-23.58883 4.3337,-23.58872 46.9918,-32.39289 46.9913,-32.39232 1.5824,0.73203 c 2.3271,1.07761 5.9952,0.0839 7.7467,-2.09903 2.4913,-3.10937 1.4308,-7.88482 -2.2404,-10.00734 -3.5341,-2.04324 -8.421,0.19574 -9.4637,4.33618 -0.3249,1.28955 -0.4076,2.61067 -0.1827,2.93571 0.3453,0.50105 -4.9817,4.30573 -35.0362,25.02313 l -35.444,24.43259 -57.1908,-10.51964 -57.1916,-10.51915 -43.2048,29.78223 -43.2046,29.78223 -1.2122,-0.72757 c -0.6669,-0.39952 -2.0977,-0.67617 -3.1789,-0.61557 -1.2594,0.0707 -2.3503,0.44457 -3.2541,1.02629 z m 1.3233,2.17625 c 3.0048,-2.07128 7.1491,0.67886 6.38,4.23359 -0.7885,3.6438 -5.4113,4.54413 -7.5322,1.46726 -1.3466,-1.95329 -0.8708,-4.30634 1.1522,-5.70085 z m -92.6016,69.53443 c -1.1409,0.72419 -2.1023,1.75792 -2.6491,3.00401 -1.7269,3.93313 0.9024,8.37537 5.387,9.1013 1.8677,0.30218 2.4896,0.12763 4.5183,-1.27094 2.2761,-1.56893 2.3651,-1.72654 2.7355,-4.85104 l 0.3831,-3.22938 19.2355,-13.25965 19.2356,-13.25955 20.3693,3.75103 20.3693,3.75104 12.0438,-8.30209 12.0444,-8.30262 -2.8197,-0.55327 -2.8202,-0.5532 -9.7568,6.72552 -9.7556,6.72488 -20.0116,-3.68531 -20.0122,-3.68519 -20.4116,14.07039 -20.4108,14.0697 -1.5723,-0.83908 c -1.8024,-0.96135 -4.2006,-0.61347 -6.1019,0.59345 z m 132.2134,-75.45446 c -1.7671,1.17619 -2.973,3.17554 -2.9445,5.55098 0.047,3.84444 3.7465,7.09194 7.5002,6.58174 0.7754,-0.10532 2.2541,-0.76969 3.2855,-1.47587 1.6724,-1.14473 1.9307,-1.62498 2.3873,-4.44523 l 0.5123,-3.1624 34.5806,-23.83733 34.5803,-23.83721 -2.4567,-0.49153 -2.4568,-0.49152 -33.2787,22.93995 -33.2785,22.93982 -2.1197,-0.87989 c -2.2157,-0.9198 -4.5441,-0.56772 -6.3113,0.60849 z m 83.8754,-51.73443 2.4567,0.4914 2.4567,0.49153 9.7656,-6.71091 9.7668,-6.71056 20.2077,3.50396 20.2074,3.50409 20.2026,-13.9017 c 18.1121,-12.46277 20.308,-13.86902 21.2215,-13.59089 2.5351,0.77171 5.106,1.02773 6.0821,0.60533 2.9935,-1.29556 4.6196,-4.29532 4.1404,-7.63993 -0.4084,-2.85066 -2.2698,-4.66293 -5.376,-5.23411 -2.0082,-0.3694 -2.6773,-0.22728 -4.3416,0.92005 -2.4467,1.68648 -3.6325,3.83243 -3.3493,6.06404 l 0.2184,1.71263 -19.7768,13.63273 -19.7762,13.6322 -20.0117,-3.68528 -20.0118,-3.68532 -12.0412,8.30031 z m -26.2911,31.41732 c -1.2638,0.961 -2.0609,2.49677 -2.4638,4.6867 l -0.5149,2.80099 -34.7375,23.94558 -34.7383,23.94603 2.8199,0.55329 2.8199,0.55327 33.3175,-22.96672 c 32.6971,-22.53895 33.3338,-22.9557 34.1516,-22.32105 0.4585,0.35561 1.7433,0.73419 2.8552,0.84117 1.5683,0.15094 2.4902,-0.12789 4.1113,-1.24533 1.7756,-1.22396 2.1738,-1.80947 2.6522,-3.89628 0.4702,-2.04986 0.3556,-2.82233 -0.6964,-4.67023 -1.5612,-2.74344 -3.7782,-3.83943 -6.7837,-3.35292 -1.1093,0.1795 -2.0351,0.54888 -2.793,1.1255 z m -259.2379,180.43971 c -4.2579,2.88569 -6.4859,7.93941 -5.419,13.02535 0.2587,1.2304 1.1272,2.82866 2.4981,4.59517 2.7055,3.48619 6.1909,5.13019 10.4289,4.91894 2.5721,-0.12815 3.3414,-0.41637 5.9415,-2.22533 2.2292,-1.55041 3.2661,-2.61238 4.0886,-4.18644 1.2768,-2.44288 1.801,-5.92584 1.2671,-8.42097 l -0.3732,-1.74245 59.3144,-40.87468 59.3149,-40.87523 22.5051,4.14304 22.505,4.14314 46.4077,-31.99012 46.4076,-31.99 2.8629,1.39542 c 3.0587,1.49073 5.4309,1.75227 8.685,0.95846 l 4e-4,8.1e-4 c 4.65,-1.1344 8.7953,-6.36274 9.0028,-11.35501 0.2516,-6.05465 -3.707,-11.1433 -9.7291,-12.50611 -4.6261,-1.04696 -9.297,0.71194 -12.5271,4.71769 -1.4938,1.85251 -2.9724,8.01843 -2.1941,9.14775 0.4047,0.58711 -4.274,3.91193 -45.1504,32.08915 l -45.6019,31.43454 -22.5145,-4.14498 -22.515,-4.14485 -60.8261,41.92907 -60.8259,41.92907 -1.4422,-0.76905 c -2.1682,-1.15672 -6.6816,-1.57885 -8.8547,-0.82799 -1.1834,0.4089 -2.2742,0.95968 -3.2568,1.62561 z M 2827.585,639.75529 c 1.1995,-0.82683 3.5473,-0.89475 4.9568,-0.14298 1.6668,0.8891 2.2766,2.31281 1.9621,4.58171 -0.4906,3.54159 -5.4784,4.46993 -7.5865,1.41184 -0.7677,-1.1139 -0.8783,-1.9386 -0.462,-3.45638 0.3007,-1.0962 0.8094,-2.17338 1.1296,-2.39422 z m -224.6146,161.83668 c -0.255,0.17037 -0.4913,0.35822 -0.7039,0.56201 -5.6045,5.37393 0.7195,14.32202 7.542,10.67174 2.5762,-1.37844 3.897,-3.58235 3.7139,-6.19619 l -0.122,-1.75049 25.0528,-17.26955 25.0527,-17.26957 23.5874,4.34205 23.587,4.34214 12.4894,-8.60915 12.4892,-8.60914 23.9447,4.40776 23.9447,4.40788 39.0133,-26.89296 c 38.4701,-26.51853 39.026,-26.88422 39.8555,-26.2408 0.4625,0.35901 1.597,0.70059 2.5216,0.75893 v 10e-4 c 2.5544,0.16124 5.9899,-2.37015 6.6923,-4.93025 1.6253,-5.92378 -4.767,-10.73961 -9.7211,-7.32453 -2.3761,1.63787 -3.5542,3.80206 -3.2734,6.01307 l 0.2177,1.71177 -38.3917,26.4644 -38.3908,26.46395 -20.5554,-3.77519 c -11.305,-2.07647 -20.6538,-3.91945 -20.7752,-4.09551 -0.1206,-0.17601 10.5608,-7.75169 23.7381,-16.83516 l 23.9592,-16.51573 2.7522,0.67793 c 2.3925,0.58914 3.0453,0.51187 4.9845,-0.59124 1.6777,-0.9544 2.4135,-1.69548 2.9688,-2.98777 0.7986,-1.85933 0.5144,-5.06773 -0.5912,-6.67177 -1.7233,-2.50004 -6.6593,-3.42163 -9.1463,-1.70726 -1.6905,1.1652 -2.9793,3.71519 -3.0953,6.12446 l -0.1103,2.32888 -37.9174,26.13737 -37.9172,26.13749 -23.9719,-4.38914 -23.9728,-4.38836 -25.809,17.78589 -25.8088,17.78591 -1.6162,-0.78083 c -1.733,-0.83678 -4.4302,-0.48742 -6.2165,0.70531 z m 1.624,1.92034 c 0.6396,-0.39543 1.4089,-0.62676 2.2707,-0.6203 3.2658,0.0245 5.2113,3.29298 3.6743,6.17417 -1.0626,1.99245 -1.7051,2.32302 -4.0692,2.09544 -1.5667,-0.15075 -2.2974,-0.54677 -3.0654,-1.66071 -1.4751,-2.13989 -0.7296,-4.80223 1.1896,-5.9886 z m 365.3693,-230.41026 c 0.4223,-0.27838 0.8868,-0.4839 1.3703,-0.58741 1.9934,-0.4266 3.1798,0.11817 4.535,2.08409 0.7534,1.09296 0.8857,1.9066 0.5082,3.12345 -1.4156,4.56426 -7.8768,3.81562 -8.4162,-0.97539 -0.1496,-1.32278 0.7354,-2.80945 2.0027,-3.64474 z m -178.9841,143.1192 c 0.7912,-0.46391 1.7629,-0.67183 2.8481,-0.47216 2.171,0.39918 3.4918,2.17773 3.3448,4.50543 -0.083,1.30959 -0.4853,1.97942 -1.6894,2.80942 -1.8593,1.28163 -3.2405,1.31858 -4.9341,0.12978 -2.6889,-1.88748 -1.9425,-5.58091 0.4306,-6.97252 z m -12.4875,30.44089 c 2.3173,-1.68979 6.2827,-0.68172 6.7324,2.85916 0.1219,0.95799 -0.1321,2.254 -0.5652,2.88063 -1.1772,1.70619 -1.7401,1.95103 -3.9927,1.73414 -2.6585,-0.25598 -4.2263,-2.29521 -3.7511,-4.87888 0.215,-1.16881 0.8043,-2.0318 1.5766,-2.59505 z m 84.5856,-38.73964 c 2.7794,-1.56062 7.1771,0.3493 6.4304,4.40964 -0.3545,1.92876 -2.3884,3.6884 -4.1576,3.59767 -2.7337,-0.14025 -4.8519,-2.74427 -4.2627,-5.24074 0.3162,-1.34032 1.0634,-2.24641 1.9899,-2.76657 z" clip-path="url(#clipPath12355)" transform="matrix(0.23683517,0,0,0.24643473,-554.4504,-15.435643)"/>
    <rect style="fill:#3b1800;fill-opacity:1;stroke-width:0.114618" id="rect4172" width="6.3180437" height="6.401155" x="-48.591244" y="167.91805" transform="matrix(0.80411177,-0.59447815,0.56390309,0.82584097,0,0)"/>
    <rect style="fill:#391700;fill-opacity:1;stroke-width:0.114618" id="rect4330" width="6.3180437" height="6.401155" x="41.103642" y="179.33846" transform="matrix(0.80411177,-0.59447815,0.56390309,0.82584097,0,0)"/>
    <path sodipodi:type="star" style="fill:none;fill-opacity:1;stroke:#000000;stroke-width:6.75956;stroke-dasharray:none;stroke-opacity:1" id="path4384" inkscape:flatsided="true" sodipodi:sides="3" sodipodi:cx="2276.2405" sodipodi:cy="553.26794" sodipodi:r1="46.491386" sodipodi:r2="23.245691" sodipodi:arg1="0.89605538" sodipodi:arg2="1.9432529" inkscape:rounded="0" inkscape:randomized="0" d="m 2305.2834,589.57162 -75.0043,-29.30359 62.8798,-50.30385 z" inkscape:transform-center-x="0.010126714" inkscape:transform-center-y="-0.65530363" transform="matrix(0.05133213,-0.0203809,0.01958699,0.05341275,-64.590392,200.22885)"/>
    <path sodipodi:type="star" style="fill:none;fill-opacity:1;stroke:#000000;stroke-width:6.75956;stroke-dasharray:none;stroke-opacity:1" id="path4468" inkscape:flatsided="true" sodipodi:sides="3" sodipodi:cx="2276.2405" sodipodi:cy="553.26794" sodipodi:r1="46.491386" sodipodi:r2="23.245691" sodipodi:arg1="0.89605538" sodipodi:arg2="1.9432529" inkscape:rounded="0" inkscape:randomized="0" d="m 2305.2834,589.57162 -75.0043,-29.30359 62.8798,-50.30385 z" inkscape:transform-center-x="0.1110474" inkscape:transform-center-y="0.56188299" transform="matrix(-0.0492429,0.02535516,-0.02436748,-0.05123884,261.05622,80.572287)"/>
    <rect style="fill:#e85e01;fill-opacity:1;stroke-width:0.0889579" id="rect5934" width="4.9035783" height="4.9680824" x="4.8591967" y="176.36931" transform="matrix(0.80411177,-0.59447815,0.56390309,0.82584097,0,0)"/>
    <rect style="fill:#e85e01;fill-opacity:1;stroke-width:0.0889579" id="rect5938" width="4.9035783" height="4.9680824" x="-10.525905" y="172.64818" transform="matrix(0.80411177,-0.59447815,0.56390309,0.82584097,0,0)"/>
    <path sodipodi:type="star" style="fill:none;fill-opacity:1;stroke:#af4701;stroke-width:7.62119;stroke-dasharray:none;stroke-opacity:1" id="path7251" inkscape:flatsided="true" sodipodi:sides="3" sodipodi:cx="2276.2405" sodipodi:cy="553.26794" sodipodi:r1="46.491386" sodipodi:r2="23.245691" sodipodi:arg1="0.89605538" sodipodi:arg2="1.9432529" inkscape:rounded="0" inkscape:randomized="0" d="m 2305.2834,589.57162 -75.0043,-29.30359 62.8798,-50.30385 z" inkscape:transform-center-x="0.11104713" inkscape:transform-center-y="0.56188687" transform="matrix(-0.0492429,0.02535516,-0.02436748,-0.05123884,241.17561,113.84769)"/>
    <path sodipodi:type="star" style="fill:none;fill-opacity:1;stroke:#af4701;stroke-width:7.62119;stroke-dasharray:none;stroke-opacity:1" id="path8243" inkscape:flatsided="true" sodipodi:sides="3" sodipodi:cx="2276.2405" sodipodi:cy="553.26794" sodipodi:r1="46.491386" sodipodi:r2="23.245691" sodipodi:arg1="0.89605538" sodipodi:arg2="1.9432529" inkscape:rounded="0" inkscape:randomized="0" d="m 2305.2834,589.57162 -75.0043,-29.30359 62.8798,-50.30385 z" inkscape:transform-center-x="-0.1336786" inkscape:transform-center-y="-0.54036074" transform="matrix(-0.0025418,0.05710786,-0.0548833,-0.00264482,119.04734,21.201287)"/>
    <rect style="fill:none;fill-opacity:1;stroke:#813401;stroke-width:0.427274;stroke-dasharray:none;stroke-opacity:1" id="rect9103" width="3.2036211" height="3.2485194" x="-8.6630802" y="196.88763" transform="matrix(0.81089906,-0.58518605,0.55461796,0.83210511,0,0)"/>
    <rect style="fill:none;fill-opacity:1;stroke:#813401;stroke-width:0.427274;stroke-dasharray:none;stroke-opacity:1" id="rect12051" width="3.2036211" height="3.2485194" x="8.5244503" y="153.78041" transform="matrix(0.81089906,-0.58518605,0.55461796,0.83210511,0,0)"/>
    <rect style="fill:none;fill-opacity:1;stroke:#7a3100;stroke-width:0.427274;stroke-dasharray:none;stroke-opacity:1" id="rect12159" width="3.2036211" height="3.2485194" x="13.155859" y="200.75922" transform="matrix(0.81089906,-0.58518605,0.55461796,0.83210511,0,0)"/>
    <rect style="fill:none;fill-opacity:1;stroke:#7c3200;stroke-width:0.427274;stroke-dasharray:none;stroke-opacity:1" id="rect12359" width="3.2036211" height="3.2485194" x="-13.265253" y="150.01248" transform="matrix(0.81089906,-0.58518605,0.55461796,0.83210511,0,0)"/>
    <text xml:space="preserve" style="font-style:normal;font-variant:normal;font-weight:normal;font-stretch:normal;font-size:22.5947px;font-family:'Neuropol X';-inkscape-font-specification:'Neuropol X';text-align:center;text-anchor:middle;fill:url(#radialGradient13577);fill-opacity:1;stroke:none;stroke-width:0.226474;stroke-dasharray:none;stroke-opacity:1" x="1.4784403" y="225.9008" id="text13465" transform="matrix(0.80703144,-0.57910714,0.55654874,0.83974256,0,0)"><tspan sodipodi:role="line" id="tspan13463" style="fill:url(#radialGradient13577);fill-opacity:1;stroke:none;stroke-width:0.226474" x="1.4784403" y="225.9008">rezal</tspan></text>
  </g>
</svg>